<?xml version="1.0" encoding="UTF-8"?>
<!DOCTYPE svg PUBLIC "-//W3C//DTD SVG 1.1//EN" "http://www.w3.org/Graphics/SVG/1.1/DTD/svg11.dtd">
<svg xmlns="http://www.w3.org/2000/svg" version="1.1" width="512px" height="512px" style="shape-rendering:geometricPrecision; text-rendering:geometricPrecision; image-rendering:optimizeQuality; fill-rule:evenodd; clip-rule:evenodd" xmlns:xlink="http://www.w3.org/1999/xlink">
<g><path style="opacity:0.996" fill="#fe6529" d="M 232.5,-0.5 C 247.833,-0.5 263.167,-0.5 278.5,-0.5C 368.144,10.3879 435.644,54.7213 481,132.5C 497.695,163.971 507.861,197.304 511.5,232.5C 511.5,247.833 511.5,263.167 511.5,278.5C 509.9,293.765 506.9,308.765 502.5,323.5C 434.535,256.035 366.701,188.368 299,120.5C 298.601,120.728 298.435,121.062 298.5,121.5C 297.662,121.158 297.328,120.492 297.5,119.5C 283.671,118.833 269.671,118.5 255.5,118.5C 241.15,118.501 227.15,119.167 213.5,120.5C 184.768,210.363 156.435,300.363 128.5,390.5C 127.167,391.167 127.167,391.833 128.5,392.5C 167.833,432.167 207.167,471.833 246.5,511.5C 241.833,511.5 237.167,511.5 232.5,511.5C 142.856,500.612 75.3562,456.279 30,378.5C 13.3053,347.029 3.1386,313.696 -0.5,278.5C -0.5,263.167 -0.5,247.833 -0.5,232.5C 10.3875,142.857 54.7208,75.3573 132.5,30C 163.971,13.3053 197.304,3.1386 232.5,-0.5 Z"/></g>
<g><path style="opacity:1" fill="#ebd0c2" d="M 297.5,119.5 C 283.5,119.5 269.5,119.5 255.5,119.5C 241.421,119.185 227.421,119.518 213.5,120.5C 227.15,119.167 241.15,118.501 255.5,118.5C 269.671,118.5 283.671,118.833 297.5,119.5 Z"/></g>
<g><path style="opacity:1" fill="#f8fefa" d="M 255.5,119.5 C 255.811,140.546 255.477,161.546 254.5,182.5C 245.631,210.44 236.964,238.44 228.5,266.5C 227.596,267.209 227.263,268.209 227.5,269.5C 236.833,269.5 246.167,269.5 255.5,269.5C 255.5,288.5 255.5,307.5 255.5,326.5C 239.991,326.17 224.658,326.504 209.5,327.5C 202.124,348.628 195.124,369.962 188.5,391.5C 168.326,391.83 148.326,391.497 128.5,390.5C 156.435,300.363 184.768,210.363 213.5,120.5C 227.421,119.518 241.421,119.185 255.5,119.5 Z"/></g>
<g><path style="opacity:1" fill="#d8d7d7" d="M 255.5,119.5 C 269.5,119.5 283.5,119.5 297.5,119.5C 297.328,120.492 297.662,121.158 298.5,121.5C 326.425,211.609 354.758,301.609 383.5,391.5C 363.175,392.666 342.842,392.833 322.5,392C 315.655,370.619 308.655,349.286 301.5,328C 270.835,327.5 240.168,327.333 209.5,327.5C 224.658,326.504 239.991,326.17 255.5,326.5C 255.5,307.5 255.5,288.5 255.5,269.5C 264.857,269.832 274.19,269.498 283.5,268.5C 283.376,267.893 283.043,267.56 282.5,267.5C 274.492,241.139 266.325,214.806 258,188.5C 257.647,185.848 256.48,183.848 254.5,182.5C 255.477,161.546 255.811,140.546 255.5,119.5 Z"/></g>
<g><path style="opacity:1" fill="#e53b07" d="M 502.5,323.5 C 479.727,402.446 430.727,458.613 355.5,492C 330.621,502.136 304.954,508.636 278.5,511.5C 267.833,511.5 257.167,511.5 246.5,511.5C 207.167,471.833 167.833,432.167 128.5,392.5C 148.674,392.83 168.674,392.497 188.5,391.5C 195.124,369.962 202.124,348.628 209.5,327.5C 240.168,327.333 270.835,327.5 301.5,328C 308.655,349.286 315.655,370.619 322.5,392C 342.842,392.833 363.175,392.666 383.5,391.5C 354.758,301.609 326.425,211.609 298.5,121.5C 298.435,121.062 298.601,120.728 299,120.5C 366.701,188.368 434.535,256.035 502.5,323.5 Z"/></g>
<g><path style="opacity:1" fill="#e53d0a" d="M 254.5,182.5 C 256.48,183.848 257.647,185.848 258,188.5C 266.325,214.806 274.492,241.139 282.5,267.5C 273.673,268.166 264.673,268.5 255.5,268.5C 246.141,268.498 237.141,267.832 228.5,266.5C 236.964,238.44 245.631,210.44 254.5,182.5 Z"/></g>
<g><path style="opacity:1" fill="#e6734f" d="M 228.5,266.5 C 237.141,267.832 246.141,268.498 255.5,268.5C 264.673,268.5 273.673,268.166 282.5,267.5C 283.043,267.56 283.376,267.893 283.5,268.5C 274.19,269.498 264.857,269.832 255.5,269.5C 246.167,269.5 236.833,269.5 227.5,269.5C 227.263,268.209 227.596,267.209 228.5,266.5 Z"/></g>
<g><path style="opacity:1" fill="#f1bca7" d="M 128.5,390.5 C 148.326,391.497 168.326,391.83 188.5,391.5C 168.674,392.497 148.674,392.83 128.5,392.5C 127.167,391.833 127.167,391.167 128.5,390.5 Z"/></g>
</svg>
